<?xml version="1.0" encoding="iso-8859-1"?>
<!-- Generator: Adobe Illustrator 19.0.0, SVG Export Plug-In . SVG Version: 6.00 Build 0)  -->
<svg version="1.1" id="Capa_1" xmlns="http://www.w3.org/2000/svg" xmlns:xlink="http://www.w3.org/1999/xlink" x="0px" y="0px"
	 viewBox="0 0 512 512" style="enable-background:new 0 0 512 512;" xml:space="preserve">
<path style="fill:#FFCB47;" d="M382.819,34.352v-0.768C345.432,12.22,302.145,0,256,0C114.615,0,0,114.615,0,256
	s114.615,256,256,256c46.145,0,89.432-12.22,126.819-33.584v-0.768C274.837,461.554,192,368.462,192,256
	S274.837,50.446,382.819,34.352z"/>
<path style="fill:#FFE49E;" d="M417,232c-5.599,0-11.148,0.487-16.608,1.454C386.668,197.062,351.48,172,311.5,172l-50,155l50,95
	H417c52.383,0,95-42.617,95-95S469.383,232,417,232z"/>
<path style="fill:#FFF2CF;" d="M222.608,233.454C217.148,232.487,211.599,232,206,232c-52.383,0-95,42.617-95,95s42.617,95,95,95
	h105.5V172C271.52,172,236.332,197.062,222.608,233.454z"/>
<g>
</g>
<g>
</g>
<g>
</g>
<g>
</g>
<g>
</g>
<g>
</g>
<g>
</g>
<g>
</g>
<g>
</g>
<g>
</g>
<g>
</g>
<g>
</g>
<g>
</g>
<g>
</g>
<g>
</g>
</svg>
