<svg id="Layer_1" enable-background="new 0 0 512 512" height="512" viewBox="0 0 512 512" width="512" xmlns="http://www.w3.org/2000/svg"><g><path d="m146.076 419.603c0 32.43-18.449 43.715-41.207 43.715s-41.207-11.285-41.207-43.715c0-27.474 29.573-61.309 38.614-71.011 1.403-1.506 3.784-1.506 5.187 0 9.04 9.701 38.613 43.537 38.613 71.011z" fill="#bdf9ff"/><path d="m107.462 348.592c-1.403-1.506-3.784-1.506-5.187 0-2.807 3.012-7.593 8.353-12.859 15.105 11.695 14.996 25.755 36.962 25.755 55.906 0 24.641-10.655 37.065-25.755 41.616 4.773 1.439 9.986 2.098 15.453 2.098 22.758 0 41.207-11.285 41.207-43.715 0-27.473-29.573-61.309-38.614-71.01z" fill="#8cf2ff"/><path d="m316.913 468.285c0 32.43-18.449 43.715-41.207 43.715s-41.207-11.285-41.207-43.715c0-27.474 29.573-61.309 38.614-71.011 1.403-1.506 3.784-1.506 5.187 0 9.039 9.702 38.613 43.538 38.613 71.011z" fill="#bdf9ff"/><path d="m278.299 397.274c-1.403-1.506-3.784-1.506-5.187 0-2.807 3.012-7.593 8.353-12.859 15.105 11.695 14.996 25.755 36.962 25.755 55.906 0 24.641-10.655 37.065-25.755 41.616 4.773 1.439 9.986 2.098 15.453 2.098 22.758 0 41.207-11.285 41.207-43.715 0-27.472-29.574-61.308-38.614-71.01z" fill="#8cf2ff"/><path d="m489.354 276.558c14.166-15.083 22.802-35.391 22.644-57.724-.32-45.167-37.153-82.259-82.441-83.001-15.12-.248-29.337 3.504-41.671 10.253-1.638.896-3.674.566-4.95-.794-9.621-10.263-21.649-18.246-35.196-23.051-1.459-.518-2.463-1.843-2.655-3.376-8.369-67.008-65.682-118.865-135.146-118.865-65.851 0-120.781 46.604-133.447 108.54-.309 1.513-1.413 2.753-2.906 3.162-42.417 11.608-73.586 50.327-73.586 96.312 0 25.447 9.544 48.671 25.258 66.307 1.688 1.895 1.254 4.901-.936 6.187-4.866 2.857-8.131 8.134-8.131 14.172.001 9.043 7.88 16.435 16.948 16.435h444.985c9.098 0 16.822-7.159 16.934-16.231.061-4.957-2.084-9.408-5.513-12.456-1.728-1.535-1.772-4.186-.191-5.87z" fill="#f5f5f5"/><g fill="#e6e6e6"><path d="m317.389 123.295c1.917 15.099 32.665 25.042 49.257 28.86 6.286 1.446 20.262-4.482 21.24-6.068-1.638.896-3.674.566-4.95-.794-9.621-10.263-21.649-18.246-35.196-23.051-1.459-.518-2.463-1.843-2.655-3.376-8.369-67.009-65.682-118.866-135.146-118.866-5.327 0-10.581.31-15.749.903 62.905 7.443 115.32 60.326 123.199 122.392z"/><path d="m489.544 282.428c-1.727-1.535-1.771-4.185-.19-5.869 14.166-15.083 22.802-35.391 22.644-57.724-.32-45.167-37.153-82.259-82.441-83.001-.558-.009-1.112-.001-1.668 0 37.087 6.501 52.911 41.835 53.203 83.001.158 22.332-8.478 42.64-22.644 57.724-1.581 1.684-1.537 4.334.19 5.869 3.43 3.048 5.574 7.499 5.514 12.456-.112 9.072-7.835 16.231-16.934 16.231h30.905c9.098 0 16.822-7.159 16.934-16.231.061-4.957-2.083-9.408-5.513-12.456z"/></g><g fill="#e6e6e6"><path d="m121.852 107.16c-4.121.352-7.17 3.971-6.829 8.092.342 4.121 3.962 7.187 8.086 6.855.426-.037 43.085-3.076 68.818 29.208 9.268 11.626 14.077 25.197 14.293 40.338.059 4.104 3.404 7.393 7.497 7.393.037 0 .073 0 .109-.001 4.142-.059 7.451-3.464 7.392-7.606-.264-18.541-6.173-35.187-17.562-49.473-30.828-38.677-79.735-34.982-81.804-34.806z"/><path d="m364.666 173.976c-2.674-3.164-7.405-3.561-10.569-.888-1.27 1.073-30.931 26.778-16.458 70.198 1.048 3.143 3.974 5.13 7.114 5.13.786 0 1.586-.125 2.373-.387 3.93-1.31 6.053-5.558 4.744-9.487-11.172-33.518 10.941-53.159 11.936-54.02 3.138-2.677 3.526-7.392.86-10.546z"/></g><path d="m447.629 348.201c0 32.43-18.449 43.715-41.207 43.715s-41.207-11.285-41.207-43.715c0-27.474 29.573-61.309 38.614-71.011 1.403-1.506 3.784-1.506 5.187 0 9.04 9.701 38.613 43.537 38.613 71.011z" fill="#bdf9ff"/><path d="m409.015 277.19c-1.403-1.506-3.784-1.506-5.187 0-2.807 3.012-7.594 8.353-12.859 15.105 11.695 14.996 25.755 36.962 25.755 55.906 0 24.641-10.655 37.065-25.755 41.616 4.773 1.439 9.986 2.098 15.453 2.098 22.758 0 41.207-11.285 41.207-43.715 0-27.473-29.573-61.309-38.614-71.01z" fill="#8cf2ff"/></g></svg>