<?xml version="1.0"?>
<svg xmlns="http://www.w3.org/2000/svg" id="Capa_1" enable-background="new 0 0 512 512" height="512px" viewBox="0 0 512 512" width="512px"><g><path d="m276 90v267.365c11.953 6.917 20 19.832 20 34.635 0 22.091-17.909 40-40 40s-40-17.909-40-40c0-14.803 8.047-27.718 20-34.635v-267.365c0-11.046 8.954-20 20-20s20 8.954 20 20zm207.289 129.153c-8.574-10.265-21.436-16.153-35.289-16.153s-26.715 5.888-35.288 16.152c-10.536 12.614-21.001 19.848-28.712 19.848-7.67 0-18.065-7.158-28.545-19.648l-9.455-11.967v-117.385c0-49.626-40.374-90-90-90s-90 40.374-90 90v117.797c-3.055 3.754-7.742 9.505-9.288 11.356-10.536 12.613-21.001 19.847-28.712 19.847s-18.176-7.234-28.711-19.847c-8.574-10.265-21.436-16.153-35.289-16.153s-26.715 5.888-35.288 16.152c-10.536 12.614-21.001 19.848-28.712 19.848v40c20.464 0 40.452-11.508 59.412-34.206.939-1.123 2.653-1.794 4.588-1.794s3.649.671 4.589 1.795c18.959 22.697 38.947 34.205 59.411 34.205 12.902 0 25.615-4.579 38-13.648v47.274c-19.408 21.929-30 49.796-30 79.374 0 66.168 53.832 120 120 120s120-53.832 120-120c0-25.134-7.695-49.206-22.255-69.615-6.413-8.991-18.902-11.08-27.896-4.666-8.992 6.414-11.081 18.904-4.666 27.896 9.693 13.589 14.817 29.628 14.817 46.385 0 44.112-35.888 80-80 80s-80-35.888-80-80c0-21.661 8.524-41.948 24.002-57.123 3.836-3.762 5.998-8.908 5.998-14.281v-230.596c0-27.57 22.43-50 50-50s50 22.43 50 50v124.333c0 4.684 1.622 8.982 4.319 12.39l-.011.009 13.938 17.641c.112.143.227.283.343.422 18.959 22.697 38.947 34.205 59.411 34.205s40.452-11.508 59.412-34.206c.938-1.123 2.653-1.794 4.588-1.794s3.649.671 4.589 1.795c18.959 22.697 38.947 34.205 59.411 34.205v-40c-7.711 0-18.176-7.234-28.711-19.847z" data-original="#000000" class="active-path" data-old_color="#000000" fill="#4AAEF0"/></g> </svg>
