<?xml version="1.0"?>
<svg xmlns="http://www.w3.org/2000/svg" height="512px" viewBox="0 0 16 16" width="512px"><g><path d="m15 3c0-1.6543-1.3457-3-3-3h-8c-1.6543 0-3 1.3457-3 3-.552246 0-1 .447754-1 1v2c0 .552246.447754 1 1 1v6c0 1.10303.896973 2 2 2 0 .552246.447754 1 1 1h1c.552246 0 1-.447754 1-1h4c0 .552246.447754 1 1 1h1c.552246 0 1-.447754 1-1 1.10303 0 2-.896973 2-2v-6c.552246 0 1-.447754 1-1v-2c0-.552246-.447754-1-1-1zm-3-1c.55127 0 1 .44873 1 1l.0006104 4h-4.00061v-5h3zm-8 0h3v5h-4v-4c0-.55127.44873-1 1-1zm1 10c-.552307 0-1-.447754-1-1 0-.552307.447693-1 1-1 .552246 0 1 .447693 1 1 0 .552246-.447754 1-1 1zm6 0c-.552307 0-1-.447754-1-1 0-.552307.447693-1 1-1 .552246 0 1 .447693 1 1 0 .552246-.447754 1-1 1z" data-original="#000000" class="active-path" data-old_color="#000000" fill="#FFFFFF"/></g> </svg>
